<svg xmlns="http://www.w3.org/2000/svg" width="207" height="52" viewBox="0, 0, 207, 52"><path d="M15.993.957l9.584 29.932c.124.41-1.652.41-2.892.41s-2.768 0-2.892-.417l-1.94-6.445H7.483l-1.94 6.444c-.126.414-1.53.414-2.77.414s-2.89 0-2.768-.416L9.343.954C9.466.54 10.747.5 12.606.5c1.86 0 3.263.04 3.387.457zm.455 18.666l-3.8-13.304-3.76 13.3h7.56zM34.21 31.138c-4.254 0-6.484-2.286-6.484-6.277V.42c0-.42 1.776-.42 2.81-.42 1.03 0 2.808 0 2.808.416v23.82c0 1.33.62 1.954 2.148 1.954h.785c.743 0 .91.29.91 2.453 0 2.204-.167 2.495-.91 2.495H34.21zm12.146 0c-4.255 0-6.486-2.286-6.486-6.277V.42c0-.42 1.777-.42 2.81-.42 1.032 0 2.81 0 2.81.416v23.82c0 1.33.618 1.954 2.147 1.954h.785c.743 0 .91.29.91 2.453 0 2.204-.167 2.495-.91 2.495h-2.066z"/><path d="M59.285 38.953c-.165.374-1.57.416-2.81.416s-2.85-.05-2.726-.42l3.22-8.567L48.75 8.89c-.17-.373 1.28-.414 3.1-.414 1.812 0 2.89.04 3.01.414l5.21 15.68 4.915-15.673c.124-.333 1.86-.415 2.89-.415 1.24 0 3.182.04 3.017.415L59.285 38.953zm12.063-15.88v-6.32c0-5.86 4.173-8.812 10.12-8.812 5.908 0 10.163 2.91 10.163 8.82v6.32c0 5.9-4.58 8.77-10.16 8.77-6.232 0-10.12-2.91-10.12-8.77zm10.12-10.393c-3.22 0-4.5 1.372-4.5 4.116v6.193c0 2.74 1.28 4.07 4.5 4.07 2.975 0 4.545-1.37 4.545-4.077V16.79c0-2.743-1.57-4.115-4.544-4.115zm15.864-4.24c1.033 0 2.81 0 2.81.415v14.51c0 2.078.785 3.408 2.81 3.408 2.147 0 4.626-1.996 5.327-3.534V8.85c0-.415 1.77-.415 2.81-.415 1.03 0 2.81 0 2.81.414v22.03c0 .374-1.78.416-2.81.416-1.04 0-2.65-.04-2.65-.416V28.6s-2.686 3.285-7.354 3.243c-4.13-.04-6.568-2.992-6.568-7.15V8.853c0-.413 1.774-.413 2.807-.413z" fill="#fc0"/><path d="M135.05 31.304c-1.034 0-2.81 0-2.81-.415V16.42c0-2.08-.785-3.41-2.81-3.41-1.983 0-4.295 1.663-5.328 3.576v14.3c0 .416-1.776.416-2.81.416-1.033 0-2.808 0-2.808-.416V8.856c0-.374 1.775-.416 2.81-.416 1.032 0 2.643.042 2.643.415v2.37s2.685-3.326 7.352-3.285c4.13.042 6.562 2.993 6.562 7.15v15.8c0 .416-1.776.416-2.81.416zm12.268-9.312v1.414c0 2.494 1.405 3.99 4.38 3.99 2.436 0 4.5-.79 6.774-1.912.454-.25 2.437 3.74 2.024 3.99-1.942 1.123-4.916 2.37-9.253 2.37-5.743 0-9.336-3.49-9.336-8.812v-5.654c0-6.07 3.634-9.437 9.336-9.437 6.568 0 9.542 3.54 9.542 9.61V22h-13.467zm8.097-5.28c0-2.743-1.446-4.323-4.09-4.323-2.685 0-4.09 1.66-4.09 4.32v1.202h8.18V16.71zm14.21 5.28v1.414c0 2.494 1.405 3.99 4.38 3.99 2.437 0 4.502-.79 6.774-1.912.45-.25 2.43 3.74 2.02 3.99-1.94 1.123-4.918 2.37-9.256 2.37-5.743 0-9.337-3.49-9.337-8.812v-5.654c0-6.07 3.635-9.437 9.336-9.437 6.57 0 9.542 3.54 9.542 9.61V22h-13.47zm8.097-5.28c0-2.743-1.446-4.323-4.09-4.323-2.685 0-4.09 1.66-4.09 4.32v1.202h8.18V16.71zm23.466-6.692V.416c0-.416 1.775-.416 2.81-.416 1.032 0 2.808 0 2.808.416v30.472c0 .416-1.694.416-2.727.416-1.04 0-2.568 0-2.568-.416v-2.162c-.95 1.33-3.057 3.076-6.527 3.076-4.09 0-8.468-2.66-8.468-8.563V16.5c0-5.904 4.336-8.564 9.003-8.564 3.8 0 5.66 2.08 5.66 2.08zm0 11.265V17.96c0-3.118-1.612-5.238-4.834-5.238-2.56 0-4.213 1.37-4.213 4.447v5.15c0 3.24 1.74 4.53 4.26 4.53 3.265 0 4.794-2.37 4.794-5.57z"/><path d="M81.56 52V38.16h2.74l3.255 9.8c.3.91.52 1.594.656 2.047.16-.503.4-1.242.74-2.218l3.292-9.638h2.448V52h-1.76V40.415L88.934 52h-1.642l-3.978-11.783V52H81.56zm14.743 0l5.282-13.84h1.96l5.63 13.84h-2.073l-1.604-4.192h-5.752L98.236 52h-1.933zm3.97-5.684h4.662l-1.436-3.833c-.44-1.165-.77-2.12-.98-2.87-.177.887-.42 1.768-.74 2.643l-1.51 4.06zM110.85 52V38.16h6.098c1.226 0 2.158.123 2.796.372.638.248 1.148.687 1.53 1.317.38.622.57 1.32.57 2.08 0 .98-.314 1.81-.946 2.482-.632.674-1.608 1.102-2.927 1.284.488.233.85.463 1.1.69.53.49 1.04 1.104 1.51 1.84l2.39 3.77h-2.284l-1.82-2.88c-.532-.83-.97-1.467-1.314-1.908-.344-.44-.65-.75-.924-.926-.272-.176-.55-.3-.83-.368-.207-.045-.545-.067-1.013-.067h-2.11V52h-1.82zm1.82-7.732h3.913c.83 0 1.482-.087 1.95-.26.47-.173.827-.45 1.07-.83.245-.382.367-.796.367-1.242 0-.655-.237-1.193-.71-1.615-.47-.42-1.217-.63-2.236-.63h-4.353v4.58zM124.815 52V38.16h1.82v6.863l6.83-6.864h2.468l-5.77 5.6 6.023 8.24h-2.402l-4.897-7.005-2.252 2.21V52h-1.82zm16.582 0V39.792h-4.532V38.16h10.902v1.632h-4.55V52h-1.82zm8.43 0V38.16h5.188c.913 0 1.61.043 2.092.13.675.114 1.242.33 1.698.648.456.317.824.763 1.102 1.336.28.573.418 1.202.418 1.888 0 1.177-.372 2.173-1.117 2.988-.744.816-2.09 1.223-4.034 1.223h-3.527V52h-1.82zm1.82-7.26h3.555c1.176 0 2.012-.22 2.505-.66.494-.44.742-1.062.742-1.86 0-.58-.15-1.076-.44-1.488-.29-.412-.678-.684-1.15-.816-.31-.082-.87-.123-1.7-.123h-3.52v4.947zM162.76 52V38.16h1.82v12.207h6.774V52h-8.594zm9.442 0l5.282-13.84h1.96l5.63 13.84H183l-1.604-4.192h-5.75L174.133 52H172.2zm3.97-5.684h4.66l-1.434-3.833c-.437-1.165-.763-2.12-.975-2.87-.175.887-.423 1.768-.742 2.643l-1.51 4.06zM188.794 52V39.792h-4.532V38.16h10.902v1.632h-4.55V52h-1.82zm7.332 0v-1.7l7.045-8.865c.508-.63.98-1.177 1.43-1.643h-7.67V38.16h9.85v1.632l-7.72 9.602-.836.973H207V52h-10.873z" fill="#505050"/></svg>